<?xml version="1.0" standalone="no"?><!DOCTYPE svg PUBLIC "-//W3C//DTD SVG 1.1//EN" "http://www.w3.org/Graphics/SVG/1.1/DTD/svg11.dtd"><svg xmlns="http://www.w3.org/2000/svg" version="1.1" width="947.333" height="780.352" xmlns:xlink="http://www.w3.org/1999/xlink" xlink="http://www.w3.org/1999/xlink" style="position:relative;overflow:hidden;" viewBox="400.333 600.315 947.333 780.352"><defs><filter id="36a17dc0-eba3-4758-8d81-b4812c41e3fa" x="-0.5" y="-0.5" width="2" height="2"><feFlood flood-color="#000" flood-opacity="0.3" result="flood"/><feComposite in="flood" in2="SourceAlpha" operator="in" result="mask"/><feGaussianBlur in="mask" stdDeviation="2"/><feOffset dx="1.25" dy="1.25" result="oEffect0"/><feMerge><feMergeNode in="oEffect0"/><feMergeNode in="SourceGraphic"/></feMerge></filter><filter id="727273d6-8bdc-4261-8ea9-99538e79a0eb" x="-0.5" y="-0.5" width="2" height="2"><feFlood flood-color="#000" flood-opacity="0.3" result="flood"/><feComposite in="flood" in2="SourceAlpha" operator="in" result="mask"/><feGaussianBlur in="mask" stdDeviation="2"/><feOffset dx="0.05" dy="0.05" result="oEffect0"/><feMerge><feMergeNode in="oEffect0"/><feMergeNode in="SourceGraphic"/></feMerge></filter></defs><g><g width="150" height="75" transform="scale(1,1) translate(591.667,613.565)"><g width="150" height="75" transform="scale(1,1) translate(0,0)" stroke="#D9E3B0" stroke-width="1" stroke-dasharray="none" fill="#D9E3B0" fill-opacity="1" stroke-opacity="1" filter="url(#36a17dc0-eba3-4758-8d81-b4812c41e3fa)"><ellipse rx="75" ry="37.5" cx="75" cy="37.5"/></g><g width="99.69224385133333" height="46.65923520133334" transform="scale(1,1) translate(25.154,14.17)"><text width="99.69224385133333" height="33.333335876464844" transform="scale(1,1) translate(0,6.662949662434247)" xml:space="preserve"><tspan xml:space="preserve" text-rendering="optimizeSpeed" style="font-family: Arial, Helvetica Neue, Helvetica, sans-serif;" font-size="13.88888888888889" font-weight="normal" font-style="normal" text-decoration="none" fill="#333333" opacity="1" x="10.089" text-anchor="start" y="13.542" textLength="75.65972900390625">Using Azure</tspan><tspan xml:space="preserve" text-rendering="optimizeSpeed" style="font-family: Arial, Helvetica Neue, Helvetica, sans-serif;" font-size="13.88888888888889" font-weight="normal" font-style="normal" text-decoration="none" fill="#333333" opacity="1" x="35.94" text-anchor="start" y="30.208" textLength="27.81250762939453">AKS</tspan></text></g></g><g width="284.609" height="60.5" transform="scale(1,1) translate(524.362,688.565)"><g fill="#545454" stroke="#545454" stroke-opacity="1" transform="scale(1,1) translate(0,0)"><path fill="none" stroke-width="1" stroke-dasharray="none" d="M142.305,0 L142.305,0 M142.305,0 L142.305,0 M142.305,0 L142.305,0 M142.305,0 L4.601,58.544 M142.305,0 L280.008,58.544"/><g><g stroke-dasharray="none"><path d="M11.159,61.189L0,60.5L7.247,51.986L4.601,58.544z" stroke="none" fill-opacity="1"/></g><g stroke-dasharray="none"><path d="M277.363,51.986L284.609,60.5L273.45,61.189L280.008,58.544z" stroke="none" fill-opacity="1"/></g></g></g><g stroke-width="0" stroke-dasharray="none" fill="#FFFFFF" opacity="1" width="24.656" height="18.667" transform="scale(1,1) translate(58.824,20.917)"><rect width="24.656" height="18.667"/></g><g width="22.65625" height="100.5" transform="scale(1,1) translate(59.824,21.917)"><text width="22.65625" height="16.666667938232422" transform="scale(1,1) translate(0,0)" xml:space="preserve"><tspan xml:space="preserve" text-rendering="optimizeSpeed" style="font-family: Arial, Helvetica Neue, Helvetica, sans-serif;" font-size="13.88888888888889" font-weight="normal" font-style="normal" text-decoration="none" fill="#333333" opacity="1" x="0" text-anchor="start" y="13.542" textLength="22.65625">Yes</tspan></text></g><g stroke-width="0" stroke-dasharray="none" fill="#FFFFFF" opacity="1" width="19.76" height="18.667" transform="scale(1,1) translate(203.577,20.917)"><rect width="19.76" height="18.667"/></g><g width="17.760417938232422" height="100.5" transform="scale(1,1) translate(204.577,21.917)"><text width="17.760417938232422" height="16.666667938232422" transform="scale(1,1) translate(0,0)" xml:space="preserve"><tspan xml:space="preserve" text-rendering="optimizeSpeed" style="font-family: Arial, Helvetica Neue, Helvetica, sans-serif;" font-size="13.88888888888889" font-weight="normal" font-style="normal" text-decoration="none" fill="#333333" opacity="1" x="0" text-anchor="start" y="13.542" textLength="17.760417938232422">No</tspan></text></g></g><g width="0" height="60.5" transform="scale(1,1) translate(808.971,824.065)"><g fill="#545454" stroke="#545454" stroke-opacity="1" transform="scale(1,1) translate(0,0)"><path fill="none" stroke-width="1" stroke-dasharray="none" d="M0,0 L0,0 M0,0 L0,0 M0,0 L0,0 M0,0 L0,55.5"/><g><g stroke-dasharray="none"><path d="M5,50.5L0,60.5L-5,50.5L0,55.5z" stroke="none" fill-opacity="1"/></g></g></g></g><g width="153.667" height="75" transform="scale(1,1) translate(732.138,749.065)"><g width="153.667" height="75" transform="scale(1,1) translate(0,0)" stroke="#FEBAB2" stroke-width="1" stroke-dasharray="none" fill="#FEBAB2" fill-opacity="1" stroke-opacity="1" filter="url(#36a17dc0-eba3-4758-8d81-b4812c41e3fa)"><ellipse rx="76.8335" ry="37.5" cx="76.8335" cy="37.5"/></g><g width="102.28496871866663" height="46.65923520133334" transform="scale(1,1) translate(25.691,14.17)"><text width="102.28496871866663" height="33.333335876464844" transform="scale(1,1) translate(0,6.662949662434247)" xml:space="preserve"><tspan xml:space="preserve" text-rendering="optimizeSpeed" style="font-family: Arial, Helvetica Neue, Helvetica, sans-serif;" font-size="13.88888888888889" font-weight="normal" font-style="normal" text-decoration="none" fill="#333333" opacity="1" x="11.012" text-anchor="start" y="13.542" textLength="76.40625762939453">Use Custom</tspan><tspan xml:space="preserve" text-rendering="optimizeSpeed" style="font-family: Arial, Helvetica Neue, Helvetica, sans-serif;" font-size="13.88888888888889" font-weight="normal" font-style="normal" text-decoration="none" fill="#333333" opacity="1" x="16.012" text-anchor="start" y="30.208" textLength="70.26042175292969">Credentials</tspan></text></g></g><g width="0" height="100" transform="scale(1,1) translate(524.362,964.87)"><g fill="#545454" stroke="#545454" stroke-opacity="1" transform="scale(1,1) translate(0,0)"><path fill="none" stroke-width="1" stroke-dasharray="none" d="M0,0"/></g><g fill="#9999FF" stroke="#9999FF" stroke-opacity="1" opacity="0" transform="scale(1,1) translate(0,0)"><path fill="none" stroke-width="1" stroke-dasharray="none" d="M0,0"/></g></g><g width="0" height="60.5" transform="scale(1,1) translate(524.362,829.37)"><g fill="#545454" stroke="#545454" stroke-opacity="1" transform="scale(1,1) translate(0,0)"><path fill="none" stroke-width="1" stroke-dasharray="none" d="M0,0 L0,0 M0,0 L0,0 M0,0 L0,0 M0,0 L0,55.5"/><g><g stroke-dasharray="none"><path d="M5,50.5L0,60.5L-5,50.5L0,55.5z" stroke="none" fill-opacity="1"/></g></g></g><g stroke-width="0" stroke-dasharray="none" fill="#FFFFFF" opacity="1" width="24.656" height="18.667" transform="scale(1,1) translate(-12.328,20.917)"><rect width="24.656" height="18.667"/></g><g width="22.65625" height="100.5" transform="scale(1,1) translate(-11.328,21.917)"><text width="22.65625" height="16.666667938232422" transform="scale(1,1) translate(0,0)" xml:space="preserve"><tspan xml:space="preserve" text-rendering="optimizeSpeed" style="font-family: Arial, Helvetica Neue, Helvetica, sans-serif;" font-size="13.88888888888889" font-weight="normal" font-style="normal" text-decoration="none" fill="#333333" opacity="1" x="0" text-anchor="start" y="13.542" textLength="22.65625">Yes</tspan></text></g></g><g width="160.611" height="80.305" transform="scale(1,1) translate(444.057,749.065)"><g width="160.611" height="80.305" transform="scale(1,1) translate(0,0)" stroke="#FBD585" stroke-width="1" stroke-dasharray="none" fill="#FBD585" fill-opacity="1" stroke-opacity="1" filter="url(#36a17dc0-eba3-4758-8d81-b4812c41e3fa)"><ellipse rx="80.3055" ry="40.1525" cx="80.3055" cy="40.1525"/></g><g width="107.19503255818195" height="50.41062955475765" transform="scale(1,1) translate(26.708,14.947)"><text width="107.19503255818195" height="50.000003814697266" transform="scale(1,1) translate(0,0.20531287003019116)" xml:space="preserve"><tspan xml:space="preserve" text-rendering="optimizeSpeed" style="font-family: Arial, Helvetica Neue, Helvetica, sans-serif;" font-size="13.88888888888889" font-weight="normal" font-style="normal" text-decoration="none" fill="#333333" opacity="1" x="0" text-anchor="start" y="13.542" textLength="104.23612213134766">Use AKS identity</tspan><tspan xml:space="preserve" text-rendering="optimizeSpeed" style="font-family: Arial, Helvetica Neue, Helvetica, sans-serif;" font-size="13.88888888888889" font-weight="normal" font-style="normal" text-decoration="none" fill="#333333" opacity="1" x="2.269" text-anchor="start" y="30.208" textLength="98.80209350585938">to access Azure</tspan><tspan xml:space="preserve" text-rendering="optimizeSpeed" style="font-family: Arial, Helvetica Neue, Helvetica, sans-serif;" font-size="13.88888888888889" font-weight="normal" font-style="normal" text-decoration="none" fill="#333333" opacity="1" x="20.525" text-anchor="start" y="46.875" textLength="66.14585876464844">Key Vault?</tspan></text></g></g><g width="150" height="75" transform="scale(1,1) translate(449.362,889.87)"><g transform="scale(1,1) translate(0,0)" stroke="#FBD585" fill="#FBD585" fill-opacity="1" stroke-opacity="1" filter="url(#36a17dc0-eba3-4758-8d81-b4812c41e3fa)"><path d="M0,15 a15,15 0 0,1 15,-15 l120,0 a15,15 0 0,1 15,15 l0,45 a15,15 0 0,1 -15,15 l-120,0 a15,15 0 0,1 -15,-15 z" stroke-width="1" stroke-dasharray="none"/></g><g width="134.66369408053333" height="59.66369408053334" transform="scale(1,1) translate(7.668,7.668)"><text width="134.66369408053333" height="50.000003814697266" transform="scale(1,1) translate(0,4.831845132918037)" xml:space="preserve"><tspan xml:space="preserve" text-rendering="optimizeSpeed" style="font-family: Arial, Helvetica Neue, Helvetica, sans-serif;" font-size="13.88888888888889" font-weight="normal" font-style="normal" text-decoration="none" fill="#333333" opacity="1" x="21.403" text-anchor="start" y="13.542" textLength="91.8576431274414">This is Default.</tspan><tspan xml:space="preserve" text-rendering="optimizeSpeed" style="font-family: Arial, Helvetica Neue, Helvetica, sans-serif;" font-size="13.88888888888889" font-weight="normal" font-style="normal" text-decoration="none" fill="#333333" opacity="1" x="12.514" text-anchor="start" y="30.208" textLength="105.78125762939453">No special config</tspan><tspan xml:space="preserve" text-rendering="optimizeSpeed" style="font-family: Arial, Helvetica Neue, Helvetica, sans-serif;" font-size="13.88888888888889" font-weight="normal" font-style="normal" text-decoration="none" fill="#333333" opacity="1" x="44.155" text-anchor="start" y="46.875" textLength="46.35417175292969">needed</tspan></text></g></g><g width="387.266" height="60.5" transform="scale(1,1) translate(615.338,971.059)"><g fill="#545454" stroke="#545454" stroke-opacity="1" transform="scale(1,1) translate(0,0)"><path fill="none" stroke-width="1" stroke-dasharray="none" d="M193.633,0 L193.633,0 M193.633,0 L193.633,0 M193.633,0 L193.633,0 M193.633,0 L4.772,59.009 M193.633,0 L382.494,59.009"/><g><g stroke-dasharray="none"><path d="M11.036,62.29L0,60.5L8.054,52.745L4.772,59.009z" stroke="none" fill-opacity="1"/></g><g stroke-dasharray="none"><path d="M379.213,52.745L387.266,60.5L376.23,62.29L382.494,59.009z" stroke="none" fill-opacity="1"/></g></g></g><g stroke-width="0" stroke-dasharray="none" fill="#FFFFFF" opacity="1" width="24.656" height="18.667" transform="scale(1,1) translate(84.488,20.917)"><rect width="24.656" height="18.667"/></g><g width="22.65625" height="100.5" transform="scale(1,1) translate(85.488,21.917)"><text width="22.65625" height="16.666667938232422" transform="scale(1,1) translate(0,0)" xml:space="preserve"><tspan xml:space="preserve" text-rendering="optimizeSpeed" style="font-family: Arial, Helvetica Neue, Helvetica, sans-serif;" font-size="13.88888888888889" font-weight="normal" font-style="normal" text-decoration="none" fill="#333333" opacity="1" x="0" text-anchor="start" y="13.542" textLength="22.65625">Yes</tspan></text></g><g stroke-width="0" stroke-dasharray="none" fill="#FFFFFF" opacity="1" width="19.76" height="18.667" transform="scale(1,1) translate(280.57,20.917)"><rect width="19.76" height="18.667"/></g><g width="17.760417938232422" height="100.5" transform="scale(1,1) translate(281.57,21.917)"><text width="17.760417938232422" height="16.666667938232422" transform="scale(1,1) translate(0,0)" xml:space="preserve"><tspan xml:space="preserve" text-rendering="optimizeSpeed" style="font-family: Arial, Helvetica Neue, Helvetica, sans-serif;" font-size="13.88888888888889" font-weight="normal" font-style="normal" text-decoration="none" fill="#333333" opacity="1" x="0" text-anchor="start" y="13.542" textLength="17.760417938232422">No</tspan></text></g></g><g width="177.218" height="86.495" transform="scale(1,1) translate(720.362,884.565)"><g width="177.218" height="86.495" transform="scale(1,1) translate(0,0)" stroke="#FEBAB2" stroke-width="1" stroke-dasharray="none" fill="#FEBAB2" fill-opacity="1" stroke-opacity="1" filter="url(#36a17dc0-eba3-4758-8d81-b4812c41e3fa)"><ellipse rx="88.609" ry="43.2475" cx="88.609" cy="43.2475"/></g><g width="118.93838083723846" height="54.787256300419344" transform="scale(1,1) translate(29.14,15.854)"><text width="118.93838083723846" height="50.000003814697266" transform="scale(1,1) translate(0,2.393626242861039)" xml:space="preserve"><tspan xml:space="preserve" text-rendering="optimizeSpeed" style="font-family: Arial, Helvetica Neue, Helvetica, sans-serif;" font-size="13.88888888888889" font-weight="normal" font-style="normal" text-decoration="none" fill="#333333" opacity="1" x="4.261" text-anchor="start" y="13.542" textLength="106.56250762939453">Single Azure Key</tspan><tspan xml:space="preserve" text-rendering="optimizeSpeed" style="font-family: Arial, Helvetica Neue, Helvetica, sans-serif;" font-size="13.88888888888889" font-weight="normal" font-style="normal" text-decoration="none" fill="#333333" opacity="1" x="30.268" text-anchor="start" y="30.208" textLength="54.548614501953125">Vault per</tspan><tspan xml:space="preserve" text-rendering="optimizeSpeed" style="font-family: Arial, Helvetica Neue, Helvetica, sans-serif;" font-size="13.88888888888889" font-weight="normal" font-style="normal" text-decoration="none" fill="#333333" opacity="1" x="0.407" text-anchor="start" y="46.875" textLength="118.125">Kubernetes Cluster</tspan></text></g></g><g width="330.58" height="60.5" transform="scale(1,1) translate(837.315,1114.517)"><g fill="#545454" stroke="#545454" stroke-opacity="1" transform="scale(1,1) translate(0,0)"><path fill="none" stroke-width="1" stroke-dasharray="none" d="M165.29,0 L165.29,0 M165.29,0 L165.29,0 M165.29,0 L165.29,0 M165.29,0 L4.695,58.781 M165.29,0 L325.884,58.781"/><g><g stroke-dasharray="none"><path d="M11.109,61.758L0,60.5L7.672,52.367L4.695,58.781z" stroke="none" fill-opacity="1"/></g><g stroke-dasharray="none"><path d="M322.908,52.367L330.58,60.5L319.47,61.758L325.884,58.781z" stroke="none" fill-opacity="1"/></g></g></g><g stroke-width="0" stroke-dasharray="none" fill="#FFFFFF" opacity="1" width="24.656" height="18.667" transform="scale(1,1) translate(70.317,20.917)"><rect width="24.656" height="18.667"/></g><g width="22.65625" height="100.5" transform="scale(1,1) translate(71.317,21.917)"><text width="22.65625" height="16.666667938232422" transform="scale(1,1) translate(0,0)" xml:space="preserve"><tspan xml:space="preserve" text-rendering="optimizeSpeed" style="font-family: Arial, Helvetica Neue, Helvetica, sans-serif;" font-size="13.88888888888889" font-weight="normal" font-style="normal" text-decoration="none" fill="#333333" opacity="1" x="0" text-anchor="start" y="13.542" textLength="22.65625">Yes</tspan></text></g><g stroke-width="0" stroke-dasharray="none" fill="#FFFFFF" opacity="1" width="19.76" height="18.667" transform="scale(1,1) translate(238.055,20.917)"><rect width="19.76" height="18.667"/></g><g width="17.760417938232422" height="100.5" transform="scale(1,1) translate(239.055,21.917)"><text width="17.760417938232422" height="16.666667938232422" transform="scale(1,1) translate(0,0)" xml:space="preserve"><tspan xml:space="preserve" text-rendering="optimizeSpeed" style="font-family: Arial, Helvetica Neue, Helvetica, sans-serif;" font-size="13.88888888888889" font-weight="normal" font-style="normal" text-decoration="none" fill="#333333" opacity="1" x="0" text-anchor="start" y="13.542" textLength="17.760417938232422">No</tspan></text></g><g fill="#9999FF" stroke="#9999FF" stroke-opacity="1" opacity="0" transform="scale(1,1) translate(0,0)"><path fill="none" stroke-width="1" stroke-dasharray="none" d="M0,0"/></g></g><g width="169.972" height="82.958" transform="scale(1,1) translate(917.619,1031.559)"><g width="169.972" height="82.958" transform="scale(1,1) translate(0,0)" stroke="#FEBAB2" stroke-width="1" stroke-dasharray="none" fill="#FEBAB2" fill-opacity="1" stroke-opacity="1" filter="url(#36a17dc0-eba3-4758-8d81-b4812c41e3fa)"><ellipse rx="84.986" ry="41.479" cx="84.986" cy="41.479"/></g><g width="113.81425403152406" height="52.286326731469806" transform="scale(1,1) translate(28.079,15.336)"><text width="113.81425403152406" height="50.000003814697266" transform="scale(1,1) translate(0,1.1431614583862704)" xml:space="preserve"><tspan xml:space="preserve" text-rendering="optimizeSpeed" style="font-family: Arial, Helvetica Neue, Helvetica, sans-serif;" font-size="13.88888888888889" font-weight="normal" font-style="normal" text-decoration="none" fill="#333333" opacity="1" x="3.643" text-anchor="start" y="13.542" textLength="102.67362213134766">Access all Azure</tspan><tspan xml:space="preserve" text-rendering="optimizeSpeed" style="font-family: Arial, Helvetica Neue, Helvetica, sans-serif;" font-size="13.88888888888889" font-weight="normal" font-style="normal" text-decoration="none" fill="#333333" opacity="1" x="8.018" text-anchor="start" y="30.208" textLength="93.92361450195312">Key Vaults with</tspan><tspan xml:space="preserve" text-rendering="optimizeSpeed" style="font-family: Arial, Helvetica Neue, Helvetica, sans-serif;" font-size="13.88888888888889" font-weight="normal" font-style="normal" text-decoration="none" fill="#333333" opacity="1" x="0.553" text-anchor="start" y="46.875" textLength="112.70834350585938">the same identity?</tspan></text></g></g><g width="125" height="0" transform="scale(1,1) translate(608.333,791.667)"><g transform="scale(1,1) translate(0,0)" fill="#545454" stroke="#545454" stroke-opacity="1"><path d="M 0 0 L 120 0" fill="none" stroke-width="1" stroke-dasharray="none"/><g><g stroke-dasharray="none"><path d="M115,-5L125,0L115,5L120,0z" stroke="none" fill-opacity="1"/></g></g></g><g stroke-width="0" stroke-dasharray="none" fill="#FFFFFF" opacity="1" width="19.76" height="18.667" transform="scale(1,1) translate(52.62,-9.333)"><rect width="19.76" height="18.667"/></g><g width="17.760417938232422" height="16.666667938232422" transform="scale(1,1) translate(53.62,-8.333)"><text width="17.760417938232422" height="16.666667938232422" transform="scale(1,1) translate(0,0)" xml:space="preserve"><tspan xml:space="preserve" text-rendering="optimizeSpeed" style="font-family: Arial, Helvetica Neue, Helvetica, sans-serif;" font-size="13.88888888888889" font-weight="normal" font-style="normal" text-decoration="none" fill="#333333" opacity="1" x="0" text-anchor="start" y="13.542" textLength="17.760417938232422">No</tspan></text></g></g><g width="0" height="50" transform="scale(1,1) translate(615.338,1116.851)"><g fill="#545454" stroke="#545454" stroke-opacity="1" transform="scale(1,1) translate(0,0)" filter="url(#727273d6-8bdc-4261-8ea9-99538e79a0eb)"><path fill="none" stroke-width="1" stroke-dasharray="none" d="M0,0"/></g><g fill="#9999FF" stroke="#9999FF" stroke-opacity="1" opacity="0" transform="scale(1,1) translate(0,0)"><path fill="none" stroke-width="1" stroke-dasharray="none" d="M0,0"/></g></g><g width="202.953" height="85.292" transform="scale(1,1) translate(513.861,1031.559)"><g transform="scale(1,1) translate(0,0)" stroke="#D1BCD2" fill="#D1BCD2" fill-opacity="1" stroke-opacity="1" filter="url(#36a17dc0-eba3-4758-8d81-b4812c41e3fa)"><path d="M0,17.058 a17.058,17.058 0 0,1 17.058,-17.058 l168.836,0 a17.058,17.058 0 0,1 17.058,17.058 l0,51.175 a17.058,17.058 0 0,1 -17.058,17.058 l-168.836,0 a17.058,17.058 0 0,1 -17.058,-17.058 z" stroke-width="1" stroke-dasharray="none"/></g><g width="186.41103442340983" height="68.75000381469728" transform="scale(1,1) translate(8.271,8.271)"><text width="186.41103442340983" height="68.75000381469727" transform="scale(1,1) translate(0,0)" xml:space="preserve"><tspan xml:space="preserve" text-rendering="optimizeSpeed" style="font-family: Courier New, Courier, Lucida Sans Typewriter, Lucida Typewriter, monospace;" font-size="13.88888888888889" font-weight="normal" font-style="normal" text-decoration="none" fill="#333333" opacity="1" x="0" text-anchor="start" y="12.5" textLength="141.6666717529297">customAuth = true</tspan><tspan xml:space="preserve" text-rendering="optimizeSpeed" style="font-family: Arial, Helvetica Neue, Helvetica, sans-serif;" font-size="13.88888888888889" font-weight="normal" font-style="normal" text-decoration="none" fill="#333333" opacity="1" x="0" text-anchor="start" y="48.958" textLength="182.18751525878906">Pass custom AKV credentials</tspan><tspan xml:space="preserve" text-rendering="optimizeSpeed" style="font-family: Arial, Helvetica Neue, Helvetica, sans-serif;" font-size="13.88888888888889" font-weight="normal" font-style="normal" text-decoration="none" fill="#333333" opacity="1" x="0" text-anchor="start" y="65.625" textLength="88.76736450195312">to Env-Injector</tspan></text></g></g><g width="0" height="50" transform="scale(1,1) translate(837.315,1260.309)"><g fill="#545454" stroke="#545454" stroke-opacity="1" transform="scale(1,1) translate(0,0)" filter="url(#727273d6-8bdc-4261-8ea9-99538e79a0eb)"><path fill="none" stroke-width="1" stroke-dasharray="none" d="M0,0"/></g><g fill="#9999FF" stroke="#9999FF" stroke-opacity="1" opacity="0" transform="scale(1,1) translate(0,0)"><path fill="none" stroke-width="1" stroke-dasharray="none" d="M0,0"/></g></g><g width="202.833" height="85.292" transform="scale(1,1) translate(735.898,1175.017)"><g transform="scale(1,1) translate(0,0)" stroke="#D1BCD2" fill="#D1BCD2" fill-opacity="1" stroke-opacity="1" filter="url(#36a17dc0-eba3-4758-8d81-b4812c41e3fa)"><path d="M0,17.058 a17.058,17.058 0 0,1 17.058,-17.058 l168.716,0 a17.058,17.058 0 0,1 17.058,17.058 l0,51.175 a17.058,17.058 0 0,1 -17.058,17.058 l-168.716,0 a17.058,17.058 0 0,1 -17.058,-17.058 z" stroke-width="1" stroke-dasharray="none"/></g><g width="186.29098296913799" height="68.75000381469727" transform="scale(1,1) translate(8.271,8.271)"><text width="186.29098296913799" height="68.75000381469727" transform="scale(1,1) translate(0,0)" xml:space="preserve"><tspan xml:space="preserve" text-rendering="optimizeSpeed" style="font-family: Courier New, Courier, Lucida Sans Typewriter, Lucida Typewriter, monospace;" font-size="13.88888888888889" font-weight="normal" font-style="normal" text-decoration="none" fill="#333333" opacity="1" x="0" text-anchor="start" y="12.5" textLength="141.6666717529297">customAuth = true</tspan><tspan xml:space="preserve" text-rendering="optimizeSpeed" style="font-family: Arial, Helvetica Neue, Helvetica, sans-serif;" font-size="13.88888888888889" font-weight="normal" font-style="normal" text-decoration="none" fill="#333333" opacity="1" x="0" text-anchor="start" y="48.958" textLength="182.18751525878906">Pass custom AKV credentials</tspan><tspan xml:space="preserve" text-rendering="optimizeSpeed" style="font-family: Arial, Helvetica Neue, Helvetica, sans-serif;" font-size="13.88888888888889" font-weight="normal" font-style="normal" text-decoration="none" fill="#333333" opacity="1" x="0" text-anchor="start" y="65.625" textLength="88.76736450195312">to Env-Injector</tspan></text></g></g><g width="0" height="50" transform="scale(1,1) translate(1167.894,1265.983)"><g fill="#545454" stroke="#545454" stroke-opacity="1" transform="scale(1,1) translate(0,0)" filter="url(#727273d6-8bdc-4261-8ea9-99538e79a0eb)"><path fill="none" stroke-width="1" stroke-dasharray="none" d="M0,0"/></g></g><g width="216.326" height="90.966" transform="scale(1,1) translate(1059.731,1175.017)"><g transform="scale(1,1) translate(0,0)" stroke="#CEE7E9" fill="#9DA35B" fill-opacity="1" stroke-opacity="1" filter="url(#36a17dc0-eba3-4758-8d81-b4812c41e3fa)"><path d="M0,18.193 a18.193,18.193 0 0,1 18.193,-18.193 l179.94,0 a18.193,18.193 0 0,1 18.193,18.193 l0,54.58 a18.193,18.193 0 0,1 -18.193,18.193 l-179.94,0 a18.193,18.193 0 0,1 -18.193,-18.193 z" stroke-width="1" stroke-dasharray="none"/></g><g width="199.11940238832898" height="73.75918899956713" transform="scale(1,1) translate(8.603,8.603)"><text width="199.11940238832898" height="68.75000381469727" transform="scale(1,1) translate(0,2.504592592434932)" xml:space="preserve"><tspan xml:space="preserve" text-rendering="optimizeSpeed" style="font-family: Courier New, Courier, Lucida Sans Typewriter, Lucida Typewriter, monospace;" font-size="13.88888888888889" font-weight="normal" font-style="normal" text-decoration="none" fill="#333333" opacity="1" x="0" text-anchor="start" y="12.5" textLength="141.6666717529297">customAuth = true</tspan><tspan xml:space="preserve" text-rendering="optimizeSpeed" style="font-family: Arial, Helvetica Neue, Helvetica, sans-serif;" font-size="13.88888888888889" font-weight="normal" font-style="normal" text-decoration="none" fill="#333333" opacity="1" x="0" text-anchor="start" y="48.958" textLength="197.6215362548828">Pass custom AKV credentials to</tspan><tspan xml:space="preserve" text-rendering="optimizeSpeed" style="font-family: Arial, Helvetica Neue, Helvetica, sans-serif;" font-size="13.88888888888889" font-weight="normal" font-style="normal" text-decoration="none" fill="#333333" opacity="1" x="0" text-anchor="start" y="65.625" textLength="67.91668701171875">every POD</tspan></text></g></g><g width="544" height="375.667" transform="scale(1,1) translate(414.333,991)"><g width="544" height="375.667" transform="scale(1,1) translate(0,0)" stroke="#D1BCD2" stroke-width="4" stroke-dasharray="12,4" fill="#FFFFFF" fill-opacity="0" stroke-opacity="1"><ellipse rx="272" ry="187.8335" cx="272" cy="187.8335"/></g></g><g width="101.406" height="29.167" transform="scale(1,1) translate(530.51,1199.167)"><g stroke="#545454" stroke-opacity="1" stroke-width="0" stroke-dasharray="none" width="101.406" height="29.167" transform="scale(1,1) translate(0,0)" fill="none"><rect width="101.406" height="29.167"/></g><g width="101.40625762939453" height="29.166667938232422" transform="scale(1,1) translate(0,0)"><text width="101.40625762939453" height="29.166667938232422" transform="scale(1,1) translate(0,0)" xml:space="preserve"><tspan xml:space="preserve" text-rendering="optimizeSpeed" style="font-family: Arial, Helvetica Neue, Helvetica, sans-serif;" font-size="25" font-weight="bold" font-style="italic" text-decoration="none" fill="#333333" opacity="1" x="0" text-anchor="start" y="22.917" textLength="101.40625762939453">Option 1</tspan></text></g></g><g width="333.667" height="181" transform="scale(1,1) translate(1000,1152.333)"><g width="333.667" height="181" transform="scale(1,1) translate(0,0)" stroke="#D9E3B0" stroke-width="4" stroke-dasharray="12,4" fill="#FFFFFF" fill-opacity="0" stroke-opacity="1"><ellipse rx="166.8335" ry="90.5" cx="166.8335" cy="90.5"/></g></g><g width="101.406" height="29.167" transform="scale(1,1) translate(1112.833,1283.667)"><g stroke="#545454" stroke-opacity="1" stroke-width="0" stroke-dasharray="none" width="101.406" height="29.167" transform="scale(1,1) translate(0,0)" fill="none"><rect width="101.406" height="29.167"/></g><g width="101.40625762939453" height="29.166667938232422" transform="scale(1,1) translate(0,0)"><text width="101.40625762939453" height="29.166667938232422" transform="scale(1,1) translate(0,0)" xml:space="preserve"><tspan xml:space="preserve" text-rendering="optimizeSpeed" style="font-family: Arial, Helvetica Neue, Helvetica, sans-serif;" font-size="25" font-weight="bold" font-style="italic" text-decoration="none" fill="#333333" opacity="1" x="0" text-anchor="start" y="22.917" textLength="101.40625762939453">Option 2</tspan></text></g></g></g></svg>