<?xml version="1.0" standalone="no"?><!DOCTYPE svg PUBLIC "-//W3C//DTD SVG 1.1//EN" "http://www.w3.org/Graphics/SVG/1.1/DTD/svg11.dtd"><svg xmlns="http://www.w3.org/2000/svg" version="1.1" width="719.5" height="764.333" xmlns:xlink="http://www.w3.org/1999/xlink" xlink="http://www.w3.org/1999/xlink" style="position:relative;overflow:hidden;" viewBox="430.833 600.333 719.5 764.333"><defs><filter id="f1dd71ae-2f20-45dd-8d8b-66b8c71afe77" x="-0.5" y="-0.5" width="2" height="2"><feFlood flood-color="#000" flood-opacity="0.3" result="flood"/><feComposite in="flood" in2="SourceAlpha" operator="in" result="mask"/><feGaussianBlur in="mask" stdDeviation="2"/><feOffset dx="1.25" dy="1.25" result="oEffect0"/><feMerge><feMergeNode in="oEffect0"/><feMergeNode in="SourceGraphic"/></feMerge></filter><filter id="a7ad6200-daeb-4f37-86a9-e60cce431e67" x="-0.5" y="-0.5" width="2" height="2"><feFlood flood-color="#000" flood-opacity="0.3" result="flood"/><feComposite in="flood" in2="SourceAlpha" operator="in" result="mask"/><feGaussianBlur in="mask" stdDeviation="2"/><feOffset dx="0.05" dy="0.05" result="oEffect0"/><feMerge><feMergeNode in="oEffect0"/><feMergeNode in="SourceGraphic"/></feMerge></filter></defs><g><g width="150" height="75" transform="scale(1,1) translate(591.667,613.5)"><g width="150" height="75" transform="scale(1,1) translate(0,0)" stroke="#D9E3B0" stroke-width="1" stroke-dasharray="none" fill="#D9E3B0" fill-opacity="1" stroke-opacity="1" filter="url(#f1dd71ae-2f20-45dd-8d8b-66b8c71afe77)"><ellipse rx="75" ry="37.5" cx="75" cy="37.5"/></g><g width="99.66666666666666" height="46.666666666666664" transform="scale(1,1) translate(25.167,14.167)"><text width="99.66666666666666" height="32.29166793823242" transform="scale(1,1) translate(0,7.187499364217121)" xml:space="preserve"><tspan xml:space="preserve" text-rendering="optimizeSpeed" style="font-family: Arial, Helvetica Neue, Helvetica, sans-serif;" font-size="13.88888888888889" font-weight="normal" font-style="normal" text-decoration="none" fill="#333333" opacity="1" x="10.076" text-anchor="start" y="13.021" textLength="75.65972900390625">Using Azure</tspan><tspan xml:space="preserve" text-rendering="optimizeSpeed" style="font-family: Arial, Helvetica Neue, Helvetica, sans-serif;" font-size="13.88888888888889" font-weight="normal" font-style="normal" text-decoration="none" fill="#333333" opacity="1" x="35.927" text-anchor="start" y="29.167" textLength="27.81250762939453">AKS</tspan></text></g></g><g width="284.583" height="60.5" transform="scale(1,1) translate(524.375,688.5)"><g fill="#545454" stroke="#545454" stroke-opacity="1" transform="scale(1,1) translate(0,0)"><path fill="none" stroke-width="1" stroke-dasharray="none" d="M142.292,0 L142.292,0 M142.292,0 L142.292,0 M142.292,0 L142.292,0 M142.292,0 L4.601,58.544 M142.292,0 L279.982,58.544"/><g><g stroke-dasharray="none"><path d="M11.159,61.189L0,60.5L7.246,51.986L4.601,58.544z" stroke="none" fill-opacity="1"/></g><g stroke-dasharray="none"><path d="M277.337,51.986L284.583,60.5L273.424,61.189L279.982,58.544z" stroke="none" fill-opacity="1"/></g></g></g><g stroke-width="0" stroke-dasharray="none" fill="#FFFFFF" opacity="1" width="24.656" height="18.146" transform="scale(1,1) translate(58.818,21.177)"><rect width="24.656" height="18.146"/></g><g width="22.65625" height="100.5" transform="scale(1,1) translate(59.818,22.177)"><text width="22.65625" height="16.14583396911621" transform="scale(1,1) translate(0,0)" xml:space="preserve"><tspan xml:space="preserve" text-rendering="optimizeSpeed" style="font-family: Arial, Helvetica Neue, Helvetica, sans-serif;" font-size="13.88888888888889" font-weight="normal" font-style="normal" text-decoration="none" fill="#333333" opacity="1" x="0" text-anchor="start" y="13.021" textLength="22.65625">Yes</tspan></text></g><g stroke-width="0" stroke-dasharray="none" fill="#FFFFFF" opacity="1" width="19.76" height="18.146" transform="scale(1,1) translate(203.557,21.177)"><rect width="19.76" height="18.146"/></g><g width="17.760417938232422" height="100.5" transform="scale(1,1) translate(204.557,22.177)"><text width="17.760417938232422" height="16.14583396911621" transform="scale(1,1) translate(0,0)" xml:space="preserve"><tspan xml:space="preserve" text-rendering="optimizeSpeed" style="font-family: Arial, Helvetica Neue, Helvetica, sans-serif;" font-size="13.88888888888889" font-weight="normal" font-style="normal" text-decoration="none" fill="#333333" opacity="1" x="0" text-anchor="start" y="13.021" textLength="17.760417938232422">No</tspan></text></g></g><g width="0" height="60.5" transform="scale(1,1) translate(809,824)"><g fill="#545454" stroke="#545454" stroke-opacity="1" transform="scale(1,1) translate(0,0)"><path fill="none" stroke-width="1" stroke-dasharray="none" d="M0,0 L0,0 M0,0 L0,0 M0,0 L0,0 M0,0 L0,55.5"/><g><g stroke-dasharray="none"><path d="M5,50.5L0,60.5L-5,50.5L0,55.5z" stroke="none" fill-opacity="1"/></g></g></g></g><g width="153.667" height="75" transform="scale(1,1) translate(732.167,749)"><g width="153.667" height="75" transform="scale(1,1) translate(0,0)" stroke="#FEBAB2" stroke-width="1" stroke-dasharray="none" fill="#FEBAB2" fill-opacity="1" stroke-opacity="1" filter="url(#f1dd71ae-2f20-45dd-8d8b-66b8c71afe77)"><ellipse rx="76.8335" ry="37.5" cx="76.8335" cy="37.5"/></g><g width="102.33333333333333" height="46.666666666666664" transform="scale(1,1) translate(25.667,14.167)"><text width="102.33333333333333" height="32.29166793823242" transform="scale(1,1) translate(0,7.187499364217121)" xml:space="preserve"><tspan xml:space="preserve" text-rendering="optimizeSpeed" style="font-family: Arial, Helvetica Neue, Helvetica, sans-serif;" font-size="13.88888888888889" font-weight="normal" font-style="normal" text-decoration="none" fill="#333333" opacity="1" x="11.036" text-anchor="start" y="13.021" textLength="76.40625762939453">Use Custom</tspan><tspan xml:space="preserve" text-rendering="optimizeSpeed" style="font-family: Arial, Helvetica Neue, Helvetica, sans-serif;" font-size="13.88888888888889" font-weight="normal" font-style="normal" text-decoration="none" fill="#333333" opacity="1" x="16.036" text-anchor="start" y="29.167" textLength="70.26042175292969">Credentials</tspan></text></g></g><g width="0" height="60" transform="scale(1,1) translate(524.333,964.833)"><g fill="#545454" stroke="#545454" stroke-opacity="1" transform="scale(1,1) translate(0,0)"><path fill="none" stroke-width="1" stroke-dasharray="none" d="M0,0"/></g></g><g width="0" height="60.5" transform="scale(1,1) translate(524.333,829.333)"><g fill="#545454" stroke="#545454" stroke-opacity="1" transform="scale(1,1) translate(0,0)"><path fill="none" stroke-width="1" stroke-dasharray="none" d="M0,0 L0,0 M0,0 L0,0 M0,0 L0,0 M0,0 L0,55.5"/><g><g stroke-dasharray="none"><path d="M5,50.5L0,60.5L-5,50.5L0,55.5z" stroke="none" fill-opacity="1"/></g></g></g><g stroke-width="0" stroke-dasharray="none" fill="#FFFFFF" opacity="1" width="24.656" height="18.146" transform="scale(1,1) translate(-12.328,21.177)"><rect width="24.656" height="18.146"/></g><g width="22.65625" height="100.5" transform="scale(1,1) translate(-11.328,22.177)"><text width="22.65625" height="16.14583396911621" transform="scale(1,1) translate(0,0)" xml:space="preserve"><tspan xml:space="preserve" text-rendering="optimizeSpeed" style="font-family: Arial, Helvetica Neue, Helvetica, sans-serif;" font-size="13.88888888888889" font-weight="normal" font-style="normal" text-decoration="none" fill="#333333" opacity="1" x="0" text-anchor="start" y="13.021" textLength="22.65625">Yes</tspan></text></g></g><g width="160.667" height="80.333" transform="scale(1,1) translate(444,749)"><g width="160.667" height="80.333" transform="scale(1,1) translate(0,0)" stroke="#FBD585" stroke-width="1" stroke-dasharray="none" fill="#FBD585" fill-opacity="1" stroke-opacity="1" filter="url(#f1dd71ae-2f20-45dd-8d8b-66b8c71afe77)"><ellipse rx="80.3335" ry="40.1665" cx="80.3335" cy="40.1665"/></g><g width="107.16666666666666" height="50.5" transform="scale(1,1) translate(26.833,15)"><text width="107.16666666666666" height="48.43750190734863" transform="scale(1,1) translate(0,1.0312490463256836)" xml:space="preserve"><tspan xml:space="preserve" text-rendering="optimizeSpeed" style="font-family: Arial, Helvetica Neue, Helvetica, sans-serif;" font-size="13.88888888888889" font-weight="normal" font-style="normal" text-decoration="none" fill="#333333" opacity="1" x="0" text-anchor="start" y="13.021" textLength="104.23612213134766">Use AKS identity</tspan><tspan xml:space="preserve" text-rendering="optimizeSpeed" style="font-family: Arial, Helvetica Neue, Helvetica, sans-serif;" font-size="13.88888888888889" font-weight="normal" font-style="normal" text-decoration="none" fill="#333333" opacity="1" x="2.255" text-anchor="start" y="29.167" textLength="98.80209350585938">to access Azure</tspan><tspan xml:space="preserve" text-rendering="optimizeSpeed" style="font-family: Arial, Helvetica Neue, Helvetica, sans-serif;" font-size="13.88888888888889" font-weight="normal" font-style="normal" text-decoration="none" fill="#333333" opacity="1" x="20.51" text-anchor="start" y="45.313" textLength="66.14585876464844">Key Vault?</tspan></text></g></g><g width="150" height="75" transform="scale(1,1) translate(449.333,889.833)"><g transform="scale(1,1) translate(0,0)" stroke="#FBD585" fill="#FBD585" fill-opacity="1" stroke-opacity="1" filter="url(#f1dd71ae-2f20-45dd-8d8b-66b8c71afe77)"><path d="M0,15 a15,15 0 0,1 15,-15 l120,0 a15,15 0 0,1 15,15 l0,45 a15,15 0 0,1 -15,15 l-120,0 a15,15 0 0,1 -15,-15 z" stroke-width="1" stroke-dasharray="none"/></g><g width="134.66666666666666" height="59.666666666666664" transform="scale(1,1) translate(7.667,7.667)"><text width="134.66666666666666" height="48.43750190734863" transform="scale(1,1) translate(0,5.614582379659016)" xml:space="preserve"><tspan xml:space="preserve" text-rendering="optimizeSpeed" style="font-family: Arial, Helvetica Neue, Helvetica, sans-serif;" font-size="13.88888888888889" font-weight="normal" font-style="normal" text-decoration="none" fill="#333333" opacity="1" x="21.405" text-anchor="start" y="13.021" textLength="91.8576431274414">This is Default.</tspan><tspan xml:space="preserve" text-rendering="optimizeSpeed" style="font-family: Arial, Helvetica Neue, Helvetica, sans-serif;" font-size="13.88888888888889" font-weight="normal" font-style="normal" text-decoration="none" fill="#333333" opacity="1" x="12.516" text-anchor="start" y="29.167" textLength="105.78125762939453">No special config</tspan><tspan xml:space="preserve" text-rendering="optimizeSpeed" style="font-family: Arial, Helvetica Neue, Helvetica, sans-serif;" font-size="13.88888888888889" font-weight="normal" font-style="normal" text-decoration="none" fill="#333333" opacity="1" x="44.156" text-anchor="start" y="45.313" textLength="46.35417175292969">needed</tspan></text></g></g><g width="324.167" height="77.167" transform="scale(1,1) translate(646.833,971)"><g fill="#545454" stroke="#545454" stroke-opacity="1" transform="scale(1,1) translate(0,0)"><path fill="none" stroke-width="1" stroke-dasharray="none" d="M162.083,0 L162.083,0 M162.083,0 L162.083,0 M162.083,0 L162.083,0 M162.083,0 L4.514,75.017 M162.083,0 L319.652,75.017"/><g><g stroke-dasharray="none"><path d="M11.178,77.383L0,77.167L6.88,68.354L4.514,75.017z" stroke="none" fill-opacity="1"/></g><g stroke-dasharray="none"><path d="M317.287,68.354L324.167,77.167L312.988,77.383L319.652,75.017z" stroke="none" fill-opacity="1"/></g></g></g><g stroke-width="0" stroke-dasharray="none" fill="#FFFFFF" opacity="1" width="24.656" height="18.146" transform="scale(1,1) translate(68.714,29.51)"><rect width="24.656" height="18.146"/></g><g width="22.65625" height="117.16666666666674" transform="scale(1,1) translate(69.714,30.51)"><text width="22.65625" height="16.14583396911621" transform="scale(1,1) translate(0,0)" xml:space="preserve"><tspan xml:space="preserve" text-rendering="optimizeSpeed" style="font-family: Arial, Helvetica Neue, Helvetica, sans-serif;" font-size="13.88888888888889" font-weight="normal" font-style="normal" text-decoration="none" fill="#333333" opacity="1" x="0" text-anchor="start" y="13.021" textLength="22.65625">Yes</tspan></text></g><g stroke-width="0" stroke-dasharray="none" fill="#FFFFFF" opacity="1" width="19.76" height="18.146" transform="scale(1,1) translate(233.245,29.51)"><rect width="19.76" height="18.146"/></g><g width="17.760417938232422" height="117.16666666666674" transform="scale(1,1) translate(234.245,30.51)"><text width="17.760417938232422" height="16.14583396911621" transform="scale(1,1) translate(0,0)" xml:space="preserve"><tspan xml:space="preserve" text-rendering="optimizeSpeed" style="font-family: Arial, Helvetica Neue, Helvetica, sans-serif;" font-size="13.88888888888889" font-weight="normal" font-style="normal" text-decoration="none" fill="#333333" opacity="1" x="0" text-anchor="start" y="13.021" textLength="17.760417938232422">No</tspan></text></g></g><g width="177.167" height="86.5" transform="scale(1,1) translate(720.333,884.5)"><g width="177.167" height="86.5" transform="scale(1,1) translate(0,0)" stroke="#FEBAB2" stroke-width="1" stroke-dasharray="none" fill="#FEBAB2" fill-opacity="1" stroke-opacity="1" filter="url(#f1dd71ae-2f20-45dd-8d8b-66b8c71afe77)"><ellipse rx="88.5835" ry="43.25" cx="88.5835" cy="43.25"/></g><g width="119" height="54.666666666666664" transform="scale(1,1) translate(29.167,16)"><text width="119" height="48.43750190734863" transform="scale(1,1) translate(0,3.1145823796590157)" xml:space="preserve"><tspan xml:space="preserve" text-rendering="optimizeSpeed" style="font-family: Arial, Helvetica Neue, Helvetica, sans-serif;" font-size="13.88888888888889" font-weight="normal" font-style="normal" text-decoration="none" fill="#333333" opacity="1" x="4.292" text-anchor="start" y="13.021" textLength="106.56250762939453">Single Azure Key</tspan><tspan xml:space="preserve" text-rendering="optimizeSpeed" style="font-family: Arial, Helvetica Neue, Helvetica, sans-serif;" font-size="13.88888888888889" font-weight="normal" font-style="normal" text-decoration="none" fill="#333333" opacity="1" x="30.299" text-anchor="start" y="29.167" textLength="54.548614501953125">Vault per</tspan><tspan xml:space="preserve" text-rendering="optimizeSpeed" style="font-family: Arial, Helvetica Neue, Helvetica, sans-serif;" font-size="13.88888888888889" font-weight="normal" font-style="normal" text-decoration="none" fill="#333333" opacity="1" x="0.438" text-anchor="start" y="45.313" textLength="118.125">Kubernetes Cluster</tspan></text></g></g><g width="0" height="60.5" transform="scale(1,1) translate(971,1131.167)"><g fill="#545454" stroke="#545454" stroke-opacity="1" transform="scale(1,1) translate(0,0)"><path fill="none" stroke-width="1" stroke-dasharray="none" d="M0,0 L0,0 M0,0 L0,0 M0,0 L0,0 M0,0 L0,55.5"/><g><g stroke-dasharray="none"><path d="M5,50.5L0,60.5L-5,50.5L0,55.5z" stroke="none" fill-opacity="1"/></g></g></g><g stroke-width="0" stroke-dasharray="none" fill="#FFFFFF" opacity="1" width="19.76" height="18.146" transform="scale(1,1) translate(-9.88,21.177)"><rect width="19.76" height="18.146"/></g><g width="17.760417938232422" height="100.5" transform="scale(1,1) translate(-8.88,22.177)"><text width="17.760417938232422" height="16.14583396911621" transform="scale(1,1) translate(0,0)" xml:space="preserve"><tspan xml:space="preserve" text-rendering="optimizeSpeed" style="font-family: Arial, Helvetica Neue, Helvetica, sans-serif;" font-size="13.88888888888889" font-weight="normal" font-style="normal" text-decoration="none" fill="#333333" opacity="1" x="0" text-anchor="start" y="13.021" textLength="17.760417938232422">No</tspan></text></g></g><g width="170" height="83" transform="scale(1,1) translate(886,1048.167)"><g width="170" height="83" transform="scale(1,1) translate(0,0)" stroke="#FEBAB2" stroke-width="1" stroke-dasharray="none" fill="#FEBAB2" fill-opacity="1" stroke-opacity="1" filter="url(#f1dd71ae-2f20-45dd-8d8b-66b8c71afe77)"><ellipse rx="85" ry="41.5" cx="85" cy="41.5"/></g><g width="113.83333333333333" height="52.33333333333333" transform="scale(1,1) translate(28,15.333)"><text width="113.83333333333333" height="48.43750190734863" transform="scale(1,1) translate(0,1.947915712992348)" xml:space="preserve"><tspan xml:space="preserve" text-rendering="optimizeSpeed" style="font-family: Arial, Helvetica Neue, Helvetica, sans-serif;" font-size="13.88888888888889" font-weight="normal" font-style="normal" text-decoration="none" fill="#333333" opacity="1" x="3.653" text-anchor="start" y="13.021" textLength="102.67362213134766">Access all Azure</tspan><tspan xml:space="preserve" text-rendering="optimizeSpeed" style="font-family: Arial, Helvetica Neue, Helvetica, sans-serif;" font-size="13.88888888888889" font-weight="normal" font-style="normal" text-decoration="none" fill="#333333" opacity="1" x="8.028" text-anchor="start" y="29.167" textLength="93.92361450195312">Key Vaults with</tspan><tspan xml:space="preserve" text-rendering="optimizeSpeed" style="font-family: Arial, Helvetica Neue, Helvetica, sans-serif;" font-size="13.88888888888889" font-weight="normal" font-style="normal" text-decoration="none" fill="#333333" opacity="1" x="0.562" text-anchor="start" y="45.313" textLength="112.70834350585938">the same identity?</tspan></text></g></g><g width="125" height="0" transform="scale(1,1) translate(608.333,791.667)"><g transform="scale(1,1) translate(0,0)" fill="#545454" stroke="#545454" stroke-opacity="1"><path d="M 0 0 L 120 0" fill="none" stroke-width="1" stroke-dasharray="none"/><g><g stroke-dasharray="none"><path d="M115,-5L125,0L115,5L120,0z" stroke="none" fill-opacity="1"/></g></g></g><g stroke-width="0" stroke-dasharray="none" fill="#FFFFFF" opacity="1" width="19.76" height="18.146" transform="scale(1,1) translate(52.62,-9.073)"><rect width="19.76" height="18.146"/></g><g width="17.760417938232422" height="16.14583396911621" transform="scale(1,1) translate(53.62,-8.073)"><text width="17.760417938232422" height="16.14583396911621" transform="scale(1,1) translate(0,0)" xml:space="preserve"><tspan xml:space="preserve" text-rendering="optimizeSpeed" style="font-family: Arial, Helvetica Neue, Helvetica, sans-serif;" font-size="13.88888888888889" font-weight="normal" font-style="normal" text-decoration="none" fill="#333333" opacity="1" x="0" text-anchor="start" y="13.021" textLength="17.760417938232422">No</tspan></text></g></g><g width="0" height="60" transform="scale(1,1) translate(646.833,1133.5)"><g fill="#545454" stroke="#545454" stroke-opacity="1" transform="scale(1,1) translate(0,0)" filter="url(#a7ad6200-daeb-4f37-86a9-e60cce431e67)"><path fill="none" stroke-width="1" stroke-dasharray="none" d="M0,0"/></g></g><g width="203" height="85.333" transform="scale(1,1) translate(545.333,1048.167)"><g transform="scale(1,1) translate(0,0)" stroke="#D1BCD2" fill="#D1BCD2" fill-opacity="1" stroke-opacity="1" filter="url(#f1dd71ae-2f20-45dd-8d8b-66b8c71afe77)"><path d="M0,17.067 a17.067,17.067 0 0,1 17.067,-17.067 l168.867,0 a17.067,17.067 0 0,1 17.067,17.067 l0,51.2 a17.067,17.067 0 0,1 -17.067,17.067 l-168.867,0 a17.067,17.067 0 0,1 -17.067,-17.067 z" stroke-width="1" stroke-dasharray="none"/></g><g width="186.33333333333331" height="68.66666666666666" transform="scale(1,1) translate(8.333,8.333)"><text width="186.33333333333331" height="65.62500381469727" transform="scale(1,1) translate(0,1.5208314259846958)" xml:space="preserve"><tspan xml:space="preserve" text-rendering="optimizeSpeed" style="font-family: Courier New, Courier, Lucida Sans Typewriter, Lucida Typewriter, monospace;" font-size="13.88888888888889" font-weight="normal" font-style="normal" text-decoration="none" fill="#333333" opacity="1" x="0" text-anchor="start" y="11.979" textLength="141.6666717529297">customAuth = true</tspan><tspan xml:space="preserve" text-rendering="optimizeSpeed" style="font-family: Arial, Helvetica Neue, Helvetica, sans-serif;" font-size="13.88888888888889" font-weight="normal" font-style="normal" text-decoration="none" fill="#333333" opacity="1" x="0" text-anchor="start" y="46.354" textLength="182.18751525878906">Pass custom AKV credentials</tspan><tspan xml:space="preserve" text-rendering="optimizeSpeed" style="font-family: Arial, Helvetica Neue, Helvetica, sans-serif;" font-size="13.88888888888889" font-weight="normal" font-style="normal" text-decoration="none" fill="#333333" opacity="1" x="0" text-anchor="start" y="62.5" textLength="88.76736450195312">to Env-Injector</tspan></text></g></g><g width="0" height="60" transform="scale(1,1) translate(971,1282.667)"><g fill="#545454" stroke="#545454" stroke-opacity="1" transform="scale(1,1) translate(0,0)" filter="url(#a7ad6200-daeb-4f37-86a9-e60cce431e67)"><path fill="none" stroke-width="1" stroke-dasharray="none" d="M0,0"/></g></g><g width="216.333" height="91" transform="scale(1,1) translate(862.833,1191.667)"><g transform="scale(1,1) translate(0,0)" stroke="#CEE7E9" fill="#9DA35B" fill-opacity="1" stroke-opacity="1" filter="url(#f1dd71ae-2f20-45dd-8d8b-66b8c71afe77)"><path d="M0,18.2 a18.2,18.2 0 0,1 18.2,-18.2 l179.933,0 a18.2,18.2 0 0,1 18.2,18.2 l0,54.6 a18.2,18.2 0 0,1 -18.2,18.2 l-179.933,0 a18.2,18.2 0 0,1 -18.2,-18.2 z" stroke-width="1" stroke-dasharray="none"/></g><g width="199.16666666666666" height="73.66666666666666" transform="scale(1,1) translate(8.667,8.667)"><text width="199.16666666666666" height="65.62500381469727" transform="scale(1,1) translate(0,4.020831425984696)" xml:space="preserve"><tspan xml:space="preserve" text-rendering="optimizeSpeed" style="font-family: Courier New, Courier, Lucida Sans Typewriter, Lucida Typewriter, monospace;" font-size="13.88888888888889" font-weight="normal" font-style="normal" text-decoration="none" fill="#333333" opacity="1" x="0" text-anchor="start" y="11.979" textLength="141.6666717529297">customAuth = true</tspan><tspan xml:space="preserve" text-rendering="optimizeSpeed" style="font-family: Arial, Helvetica Neue, Helvetica, sans-serif;" font-size="13.88888888888889" font-weight="normal" font-style="normal" text-decoration="none" fill="#333333" opacity="1" x="0" text-anchor="start" y="46.354" textLength="197.6215362548828">Pass custom AKV credentials to</tspan><tspan xml:space="preserve" text-rendering="optimizeSpeed" style="font-family: Arial, Helvetica Neue, Helvetica, sans-serif;" font-size="13.88888888888889" font-weight="normal" font-style="normal" text-decoration="none" fill="#333333" opacity="1" x="0" text-anchor="start" y="62.5" textLength="67.91668701171875">every POD</tspan></text></g></g><g width="383.333" height="201.333" transform="scale(1,1) translate(458,1015.333)"><g width="383.333" height="201.333" transform="scale(1,1) translate(0,0)" stroke="#D1BCD2" stroke-width="4" stroke-dasharray="12,4" fill="#FFFFFF" fill-opacity="0" stroke-opacity="1"><ellipse rx="191.6665" ry="100.6665" cx="191.6665" cy="100.6665"/></g></g><g width="101.333" height="28.646" transform="scale(1,1) translate(595,1164.687)"><g stroke="#545454" stroke-opacity="1" stroke-width="0" stroke-dasharray="none" width="101.333" height="28.646" transform="scale(1,1) translate(0,0)" fill="none"><rect width="101.333" height="28.646"/></g><g width="101.40625762939453" height="28.645835876464844" transform="scale(1,1) translate(0,0)"><text width="101.40625762939453" height="28.645835876464844" transform="scale(1,1) translate(0,0)" xml:space="preserve"><tspan xml:space="preserve" text-rendering="optimizeSpeed" style="font-family: Arial, Helvetica Neue, Helvetica, sans-serif;" font-size="25" font-weight="bold" font-style="italic" text-decoration="none" fill="#333333" opacity="1" x="0" text-anchor="start" y="22.917" textLength="101.40625762939453">Option 1</tspan></text></g></g><g width="333.667" height="181" transform="scale(1,1) translate(802.667,1169.667)"><g width="333.667" height="181" transform="scale(1,1) translate(0,0)" stroke="#D9E3B0" stroke-width="4" stroke-dasharray="12,4" fill="#FFFFFF" fill-opacity="0" stroke-opacity="1"><ellipse rx="166.8335" ry="90.5" cx="166.8335" cy="90.5"/></g></g><g width="101.333" height="28.646" transform="scale(1,1) translate(920.833,1294.667)"><g stroke="#545454" stroke-opacity="1" stroke-width="0" stroke-dasharray="none" width="101.333" height="28.646" transform="scale(1,1) translate(0,0)" fill="none"><rect width="101.333" height="28.646"/></g><g width="101.40625762939453" height="28.645835876464844" transform="scale(1,1) translate(0,0)"><text width="101.40625762939453" height="28.645835876464844" transform="scale(1,1) translate(0,0)" xml:space="preserve"><tspan xml:space="preserve" text-rendering="optimizeSpeed" style="font-family: Arial, Helvetica Neue, Helvetica, sans-serif;" font-size="25" font-weight="bold" font-style="italic" text-decoration="none" fill="#333333" opacity="1" x="0" text-anchor="start" y="22.917" textLength="101.40625762939453">Option 2</tspan></text></g></g><g width="133.833" height="0.5" transform="scale(1,1) translate(750,1091.167)"><g transform="scale(1,1) translate(0,0)" fill="#545454" stroke="#545454" stroke-opacity="1"><path d="M 133.833 0 L 5 0.481" fill="none" stroke-width="1" stroke-dasharray="none"/><g><g stroke-dasharray="none"><path d="M10.019,5.463L0,0.5L9.981,-4.537L5,0.481z" stroke="none" fill-opacity="1"/></g></g></g><g stroke-width="0" stroke-dasharray="none" fill="#FFFFFF" opacity="1" width="24.656" height="18.146" transform="scale(1,1) translate(54.589,-8.823)"><rect width="24.656" height="18.146"/></g><g width="22.65625" height="16.14583396911621" transform="scale(1,1) translate(55.589,-7.823)"><text width="22.65625" height="16.14583396911621" transform="scale(1,1) translate(0,0)" xml:space="preserve"><tspan xml:space="preserve" text-rendering="optimizeSpeed" style="font-family: Arial, Helvetica Neue, Helvetica, sans-serif;" font-size="13.88888888888889" font-weight="normal" font-style="normal" text-decoration="none" fill="#333333" opacity="1" x="0" text-anchor="start" y="13.021" textLength="22.65625">Yes</tspan></text></g></g></g></svg>